<?xml version="1.0" encoding="utf-8"?>
<!-- Generator: Adobe Illustrator 28.0.0, SVG Export Plug-In . SVG Version: 6.00 Build 0)  -->
<svg version="1.1" id="Layer_1" xmlns="http://www.w3.org/2000/svg" xmlns:xlink="http://www.w3.org/1999/xlink" x="0px" y="0px"
	 viewBox="0 0 130 64" style="enable-background:new 0 0 130 64;" xml:space="preserve">
<style type="text/css">
	.st0{fill:#FFFFFF;}
	.st1{fill:#1F2120;}
	.st2{fill:#1FBDC8;}
	.st3{fill:#F6D753;}
</style>
<g>
	<g>
		<path class="st0" d="M119.7,20.3c0.3-4.6-0.2-7.9-1.4-10.7c-0.1-0.2-0.1-0.3-0.2-0.5c-2.8-5.5-8.4-9.1-14.4-9.1c-0.3,0-0.7,0-1,0
			c-4.1,0.4-8.5,2.1-11.2,4.5C90.2,5.7,82.3,0,61.9,4.9c0,0-0.4,0-1.3-0.3c-0.8-0.3-1.5-0.8-2.3-1.2c-2.2-1.3-4.6-2-7.1-2.3
			c-0.3,0-0.7,0-1,0C46.6,1,43,2.4,40.1,4.8c-2.4-1.9-5.3-3.4-8.4-4.2C27.4-0.4,23-0.2,19.1,1.4c-3.7,1.4-6.7,3.9-8.8,7.2
			c-2,3.1-3.1,6.9-3.1,11c0,4.2,1.4,8,3.9,11.2c-1.3,0.8-2.7,1.7-3.9,2.8c-2.3,2-3.9,3.9-4.4,4.6C-0.9,43,0.1,49.8,4.9,53.4
			c2,1.5,4.3,2.2,6.6,2.2c3.3,0,6.5-1.5,8.7-4.3c0.1-0.1,0.1-0.2,0.2-0.2c2,1.2,4.1,2.2,6.2,3c3.1,1.1,6.1,1.6,9,1.6
			c3.2,0,6.1-0.6,8.7-1.9c0.9-0.4,1.7-0.9,2.5-1.5c0.9,0.4,1.8,0.8,2.8,1.1c1.6,0.5,3.3,0.7,4.9,0.7c1.6,0,3.1-0.2,4.6-0.6
			c0.4,0.1,0.8,0.3,1.2,0.3c2.8,0.6,5.7,0.2,8.1-1.3c2.4,1.1,5,1.6,7.6,1.6c2.4,0,4.5-0.4,6.5-1.1c2,0.7,4.1,1.1,6.2,1.1
			c2.4,0,4.5-0.4,6.5-1.1c2,0.7,4.1,1.1,6.2,1.1c2,0,4-0.3,5.7-0.8l0.4,0.1c0.2,5.8,5,10.5,10.8,10.5c0,0,0,0,0.1,0
			c2.9,0,5.6-1.1,7.7-3.2c2.1-2.1,3.2-4.8,3.2-7.7c0,0,0-16.9,0-22.6C129.4,22.9,125.5,19.7,119.7,20.3z"/>
		<g>
			<g>
				<path class="st1" d="M115.9,24.2c0.8-6.3,0.6-10.3-0.7-13.2c0-0.1-0.1-0.2-0.1-0.3c-2.2-4.4-6.7-7.2-11.3-7.2
					c-0.2,0-0.5,0-0.7,0c-3.3,0.3-6.4,2.1-8.9,4C90.5,10.1,80.4,3,62.3,8.3c-1.7,0.5-4.1-1.1-5.6-2c-1.7-1-3.7-1.6-5.7-1.8
					c-0.2,0-0.5,0-0.7,0c-3.9,0-7.6,2-10.2,5.1l0,0c-2.5-2.7-5.7-4.6-9.2-5.5c-3.6-0.9-7.3-0.7-10.5,0.5c-3,1.2-5.5,3.2-7.2,5.9
					c-1.6,2.6-2.5,5.8-2.5,9.1c0,4.2,1.7,8,4.9,10.8c0.6,0.6,1.3,1.1,2,1.5C11,33.3,6.4,39,5.5,40.2c-2.5,3.3-1.8,8,1.4,10.5
					c3.3,2.5,8,1.8,10.5-1.4c0.7-0.9,1.9-1.9,2.7-2.5c4.8,3.5,10.4,5.5,15.5,5.5c2.7,0,5.1-0.5,7.2-1.6c1.4-0.7,2.7-1.6,3.7-2.7
					c1.2,0.9,2.6,1.6,4.1,2.1c1.3,0.4,2.6,0.6,4,0.6c1.6,0,3.2-0.3,4.8-0.8c0.6,0.3,1.2,0.5,1.8,0.6c1.9,0.4,4,0.1,5.6-1
					c0.5-0.3,1-0.7,1.4-1.1c2.4,1.5,5.1,2.3,8,2.3c2.7,0,4.8-0.5,6.4-1.3l0.8,0.3c1.7,0.7,3.6,1,5.4,1c2.7,0,4.8-0.5,6.4-1.3
					l0.8,0.3c1.7,0.7,3.6,1,5.4,1c2,0,3.9-0.3,5.5-0.9c0,0,0.1,0,0.1-0.1l1.5,0.5c0.8,0.2,1.6,0.4,2.4,0.5v4.2
					c0,1.2,0.5,2.4,1.5,3.2c6.3,5.4,13.5,1,13.5-5V29.4C126,27,122.8,21.5,115.9,24.2z"/>
			</g>
		</g>
		<g>
			<g>
				<g>
					<path class="st0" d="M64.2,12.3c0,0-0.1,0-0.1,0.1c0,0,0,0.1,0,0.1c0,0,0,0,0,0c0.9,1.2,1.8,2.5,2.7,3.7c0,0.1,0.1,0.1,0.1,0.2
						c0,0.2-0.1,0.4-0.2,0.7c-0.1,0.2-0.2,0.3-0.4,0.3c-0.2,0-0.3-0.1-0.5-0.5c-0.1-0.2-0.3-0.4-0.4-0.6c-0.2-0.3-0.3-0.6-0.5-0.9
						c-0.1-0.2-0.3-0.5-0.6-1c-0.1-0.2-0.3-0.5-0.7-0.9c-0.3-0.4-0.5-0.8-0.7-1c0,0,0-0.1,0-0.1c0-0.1,0-0.3,0.1-0.5
						c0.1-0.2,0.2-0.4,0.3-0.4c0.1,0,0.2-0.1,0.4-0.2c0.7-0.2,1.4-0.3,2.2-0.4c0.1,0,0.2,0,0.2,0c0,0,0.1,0.1,0.2,0.2
						c0.2,0.3,0.3,0.4,0.3,0.5c0,0.1-0.1,0.2-0.2,0.3C65.7,12.1,64.9,12.2,64.2,12.3z"/>
					<path class="st0" d="M72,15.6c0.1,0.3,0.2,0.4,0.3,0.4c0.1,0,0.3-0.2,0.6-0.5c0,0,0-0.1,0-0.1c0-0.1,0-0.1,0-0.1
						c0-0.8,0-1.7,0.2-2.5c0-0.2,0.1-0.3,0.1-0.3c0.1,0,0.2,0,0.4,0.1c0.3,0.1,0.4,0.3,0.4,0.4c0,0.1,0,0.2,0,0.3
						c-0.1,0.7-0.1,1.3-0.1,2c0,0.6,0.1,1.1,0.3,1.6c0,0.1,0,0.1,0,0.1c0,0.1,0,0.1-0.1,0.1c0,0-0.1,0-0.2,0
						C73.6,17,73.5,17,73.4,17c-0.1,0-0.2-0.1-0.3-0.3c-0.1-0.1-0.1-0.2-0.2-0.2c0,0-0.1,0-0.2,0.1c-0.2,0.2-0.4,0.3-0.6,0.3
						c-0.2,0-0.5-0.1-0.7-0.2c0,0-0.1-0.1-0.3-0.2c0,0-0.1,0.1-0.3,0.3c-0.2,0.2-0.4,0.3-0.6,0.3c-0.2,0-0.5-0.1-0.7-0.2
						c-0.2-0.2-0.4-0.4-0.5-0.7c-0.1-0.2-0.1-0.5-0.2-0.9c-0.1-0.8,0-1.6,0.1-2.4c0-0.2,0.1-0.3,0.2-0.3c0.1,0,0.2,0,0.3,0.1
						c0.1,0,0.3,0.1,0.4,0.1c0.1,0,0.1,0.1,0.1,0.2c0,0,0,0.1,0,0.2c0,0.3-0.1,0.7-0.1,1.1c0,0.5,0,0.8,0,1.1c0,0.1,0,0.2,0.1,0.3
						c0.1,0.3,0.2,0.4,0.3,0.4c0.1,0,0.3-0.2,0.6-0.5c0,0,0-0.1,0-0.1c0-0.1,0-0.1,0-0.1c-0.1-0.8,0-1.7,0.1-2.5
						c0-0.2,0.1-0.3,0.1-0.3c0.1,0,0.2,0,0.4,0.1c0.3,0.1,0.4,0.3,0.4,0.4c0,0.1,0,0.2,0,0.3c0,0.6-0.1,1.3-0.1,1.9
						C71.9,15.4,71.9,15.5,72,15.6z"/>
					<path class="st0" d="M79.2,15.3c0,0.6,0.1,1.1,0.2,1.6c0,0.1,0,0.1,0,0.1c0,0.1,0,0.1-0.1,0.1c0,0-0.1,0-0.2-0.1
						c-0.2-0.1-0.3-0.1-0.4-0.1c-0.1-0.1-0.2-0.1-0.2-0.3c-0.1-0.1-0.1-0.2-0.2-0.2c0,0-0.1,0-0.2,0.1c-0.2,0.2-0.4,0.3-0.6,0.3
						c-0.2,0-0.5-0.1-0.7-0.3c-0.2-0.2-0.4-0.4-0.5-0.7c-0.1-0.2-0.1-0.5-0.1-0.9c0-0.8,0.1-1.6,0.2-2.4c0-0.2,0.1-0.3,0.3-0.3
						c0.1,0,0.2,0,0.3,0.1c0.1,0,0.2,0.1,0.3,0.2c0.1,0,0.1,0.1,0.1,0.2c0,0,0,0.1,0,0.2c-0.1,0.3-0.1,0.7-0.2,1.1
						c-0.1,0.5-0.1,0.8-0.1,1.1c0,0.1,0,0.2,0,0.3c0.1,0.3,0.2,0.4,0.3,0.4c0.1,0,0.3-0.2,0.6-0.5c0,0,0-0.1,0-0.1
						c0-0.1,0-0.1,0-0.1c0-0.1,0-0.3,0-0.5c0-0.1,0-0.3,0.1-0.6c0,0,0-0.1,0.1-0.4c0-0.2,0.1-0.4,0.1-0.6c0-0.2,0-0.4-0.1-0.4
						c-0.1-0.1-0.2-0.2-0.4-0.4c-0.1-0.1-0.2-0.3-0.3-0.5c0-0.1-0.1-0.2-0.1-0.3c0-0.4,0.1-0.7,0.4-0.9c0.2-0.2,0.6-0.3,1.1-0.3
						c0.5,0,0.7,0.2,0.9,0.5C80,10.9,80,11,80,11.1c0,0.1-0.1,0.2-0.2,0.4c-0.1,0.1-0.2,0.2-0.3,0.2c-0.1,0-0.2-0.1-0.3-0.4
						c-0.1-0.2-0.2-0.3-0.3-0.3c-0.1,0-0.1,0.1-0.2,0.2c-0.1,0.1-0.1,0.3-0.1,0.4c0,0.1,0.1,0.3,0.4,0.4c0.4,0.2,0.6,0.5,0.6,0.9
						c0,0,0,0.1-0.1,0.5C79.2,13.9,79.2,14.6,79.2,15.3z"/>
					<path class="st0" d="M82.9,14c-0.1,0.6-0.1,1.3-0.1,1.8c0,0.1,0,0.2,0,0.4c0,0.2,0,0.3,0,0.4c0,0.2-0.1,0.3-0.2,0.3
						c-0.1,0-0.2,0-0.4-0.2c-0.2-0.1-0.3-0.2-0.3-0.3c-0.1-0.1-0.1-0.2-0.1-0.4c0,0,0,0,0-0.2c0.1-0.6,0.1-1.3,0.2-2
						c0-0.3,0-0.5,0-0.8c0-0.3,0-0.4,0-0.7c0,0,0,0,0-0.1c0,0,0-0.1,0-0.1c0-0.1,0.1-0.2,0.2-0.2c0.1,0,0.2,0,0.3,0.1
						c0.2,0.1,0.2,0.1,0.3,0.2c0.1,0.1,0.1,0.2,0.1,0.3c0,0.1,0,0.1,0.1,0.1c0.1,0,0.1,0,0.2-0.1c0.1-0.2,0.3-0.2,0.5-0.2
						c0.4,0,0.7,0.3,0.9,1c0.1,0.3,0.1,0.6,0.1,1c0,0,0,0.2,0,0.4c-0.1,0.5-0.1,1-0.1,1.4c0,0.1,0,0.2,0,0.4c0,0.1,0,0.1,0,0.2
						c0,0.2-0.1,0.2-0.2,0.2c-0.1,0-0.2,0-0.3-0.1c-0.2-0.1-0.4-0.3-0.4-0.4c0-0.1,0-0.3,0-0.5c0-0.2,0-0.4,0-0.5
						c0.1-0.9,0.1-1.5,0.2-1.7c0-0.2,0-0.3,0-0.3c0-0.1-0.1-0.2-0.3-0.2C83.2,13.4,83,13.6,82.9,14z"/>
					<path class="st0" d="M90,16.2c-0.1,0.8-0.1,1.3-0.1,1.4c0,0.4,0,0.7,0.2,1c0,0.1,0.1,0.1,0.1,0.2c0.1,0.1,0.1,0.3,0.1,0.3
						c0,0.2-0.2,0.3-0.4,0.3c-0.1,0-0.2,0-0.3,0c-0.2,0-0.3,0-0.3-0.1c-0.2-0.1-0.3-0.4-0.3-0.9c0-0.2,0-0.5,0-0.9
						c0-0.3,0-0.5,0-0.5c0-0.1,0-0.1-0.1-0.1c0,0,0,0-0.1,0.1c-0.2,0.2-0.4,0.2-0.8,0.2c-0.4,0-0.6-0.3-0.8-0.9
						c-0.1-0.7-0.1-1.4,0-2c0-0.6,0.1-1.1,0.2-1.5c0-0.3,0.1-0.4,0.2-0.4c0.1,0,0.3,0.1,0.6,0.4c0.1,0.1,0.2,0.2,0.2,0.3
						c0,0.1,0.1,0.1,0,0.2c0,0.1-0.1,0.3-0.2,0.8c0,0.1-0.1,0.4-0.1,0.7c0,0.2,0,0.2,0,0.4c-0.1,0.7,0,1,0.3,1
						c0.2,0,0.5-0.2,0.7-0.6c0.4-1.1,0.5-2.6,0.6-3.9c0-0.1,0-0.3,0-0.5c0,0,0-0.1,0-0.1c0,0,0-0.1,0-0.1c0-0.2,0.1-0.3,0.1-0.3
						c0,0,0.2,0.1,0.4,0.2c0.1,0.1,0.2,0.1,0.3,0.2c0.1,0.1,0.1,0.2,0.1,0.3c0,0.4,0,0.7-0.1,0.9c-0.1,1-0.3,2-0.5,2.9
						C90,15.9,90,16.2,90,16.2z"/>
				</g>
			</g>
			<g>
				<g>
					<path class="st2" d="M88,23.8c-1.3,0-2.6-1-3.9-1.4c-0.7-0.2-1.5-0.2-2.2-0.1c-0.7,0.2-1.4,0.5-2.1,0.9
						c-0.5,0.3-1.2,0.6-1.8,0.6c-0.6,0.1-1.2-0.1-1.8-0.4c-1.4-0.6-2.7-1.4-4.3-1.1c-0.8,0.1-1.6,0.5-2.3,0.9
						c-0.7,0.3-1.4,0.7-2.1,0.7c-1,0-1,1.6,0,1.6c1.5,0,2.7-0.9,4.1-1.4c0.6-0.2,1.1-0.3,1.7-0.1c0.7,0.2,1.3,0.5,1.9,0.8
						c0.7,0.3,1.4,0.6,2.2,0.7c0.7,0.1,1.4-0.1,2.1-0.4c0.7-0.3,1.3-0.6,2-0.9c0.6-0.2,1.1-0.4,1.7-0.2c1.6,0.3,2.9,1.5,4.6,1.6
						C89,25.4,89,23.8,88,23.8L88,23.8z"/>
				</g>
			</g>
			<g>
				<g>
					<path class="st2" d="M90.1,20.8c-1.6,0-3.1-1-4.7-1.4c-0.9-0.2-1.7-0.2-2.6-0.1c-0.8,0.2-1.6,0.5-2.4,0.8
						c-0.7,0.3-1.5,0.6-2.3,0.7c-0.8,0.1-1.5-0.2-2.3-0.4c-1.7-0.6-3.2-1.4-5-1.1c-1.8,0.3-3.5,1.5-5.3,1.5c-1,0-1,1.6,0,1.6
						c1.8,0,3.3-0.9,4.9-1.4c0.7-0.2,1.4-0.3,2.2-0.1c0.8,0.2,1.6,0.5,2.4,0.8c0.8,0.3,1.6,0.6,2.5,0.6c0.8,0.1,1.7-0.1,2.5-0.4
						c1.5-0.5,3-1.4,4.6-1.1c1.9,0.3,3.6,1.5,5.5,1.6C91.1,22.5,91.1,20.9,90.1,20.8L90.1,20.8z"/>
				</g>
			</g>
			<g>
				<g>
					<g>
						<g>
							<g>
								<path class="st3" d="M35.6,48.8c-4.5,0-9.7-1.9-14.2-5.4c-0.5-0.4-0.9-0.4-1.3-0.4c-2,0.3-4.6,2.9-5.5,4.1
									c-1.3,1.8-3.8,2.1-5.6,0.8c-1.8-1.3-2.1-3.8-0.8-5.6c0.5-0.7,5-6.4,10.8-7.2c2.6-0.3,5.1,0.4,7.2,2
									c4.3,3.4,9.3,4.3,11.5,3.3c0.4-0.2,1.2-0.6,1.2-2.5c0-4.5-4-6.8-11.9-6.8c-7.4,0-12.9-5-12.9-11.6c0-5.5,2.8-9.9,7.5-11.8
									c5.3-2.1,11.9-0.4,15.9,4.1c1.5,1.6,1.4,4.1-0.2,5.6c-1.6,1.5-4.1,1.4-5.6-0.2c-1.9-2-4.9-2.9-7.2-2c-1.6,0.6-2.4,2-2.4,4.3
									c0,2.8,3.2,3.6,4.9,3.6c3.3,0,8.1,0.4,12.1,2.4c5,2.5,7.8,6.9,7.8,12.4c0,4.4-2.1,8-5.6,9.7C39.6,48.4,37.7,48.8,35.6,48.8z
									"/>
							</g>
						</g>
					</g>
					<g>
						<g>
							<path class="st3" d="M66.7,38.9l-0.1-0.5c-0.1-0.7-0.2-1.4-0.2-1.9c0.7-2.3,0.3-5,0.3-5.3c-0.2-2.1-1.7-3.9-3.8-4
								c-2.1-0.1-4,1.5-4.2,3.6c-0.1,1.2-0.2,3.2-0.3,4.5c0,0.1,0,0.1,0,0.2c0,0.5-0.2,0.9-0.3,1.3c-0.9,1.6-3.9,3.8-4.7,1.7
								c-0.2-0.6,0-1.6,0.6-2.9c0-0.1,0.1-0.2,0.1-0.3c0.6-1.7,1.5-4.6,0.4-7.8c-0.6-1.8-1.5-3.4-2.6-4.6c-1.6-1.7-3.5-4.2-2.6-6.1
								c0.3-0.6,0.8-1,1.4-0.7c0.3,0.1,0.5,0.5,0.5,0.8c0,2,1.5,3.7,3.5,3.9c2.2,0.3,4.2-1.3,4.4-3.5c0.2-2.1-0.4-4.2-1.7-5.9
								c-1.5-1.9-4-3.2-6.7-3.4c-0.1,0-0.2,0-0.4,0c-3.4,0-6.6,2.1-8.2,5.3c0,0.1-0.1,0.1-0.1,0.2c-1.3,2.9-1.8,7.4,2.3,12.8
								c3.2,3,5,7.1,5,11.7c0,2.4-0.5,4.6-1.5,6.5c1,1.1,2.3,1.9,3.9,2.3c1,0.3,2,0.4,3,0.4c1.8,0,3.6-0.5,5.2-1.4
								c0.5,0.6,1.3,1,2.1,1.2c2.2,0.5,4.3-0.9,4.8-3C67.1,42.2,66.9,40.4,66.7,38.9z"/>
						</g>
					</g>
					<g>
						<g>
							<path class="st3" d="M98.1,28.2c-1.6-1.5-4.2-1.4-5.6,0.3c-0.7,0.7-2.2,3-2.2,7.8c0,0.4,0,1.1,0,1.7c0,0.7-0.6,1.2-1.3,1.3
								c0,0,0,0,0,0c-0.4,0-0.8-0.1-1.1-0.2c-0.1,1.8-0.5,3.6-1.4,5.2c-0.4,0.7-0.9,1.4-1.6,2.1c1.3,0.5,2.7,0.8,4.2,0.8
								c3.9,0,6.6-1.4,8.1-4.1c1.1-2.1,1.2-4.3,1.2-6.9c0-1.7,0.3-2.6,0.4-2.8C99.8,31.9,99.6,29.6,98.1,28.2z"/>
						</g>
					</g>
					<g>
						<path class="st3" d="M108.4,38.8c-1.6-1.4-4.1-1.3-5.5,0.3c-0.2,0.2-0.5,0.1-1.3,0.1c-0.4,0-0.8-0.1-1.1-0.2
							c-0.1,1.8-0.5,3.6-1.4,5.2c-0.4,0.7-0.9,1.4-1.6,2.1c1.3,0.5,2.7,0.8,4.2,0.8c3.2,0,5.6-0.9,7.2-2.8
							C110.2,42.8,110,40.2,108.4,38.8z"/>
					</g>
					<g>
						<g>
							<path class="st3" d="M85.4,28.2c-1.6-1.5-4.2-1.4-5.6,0.3c-0.7,0.7-2.2,3-2.2,7.8c0,0.4,0,1.1,0,1.7c0,0.7-0.6,1.2-1.3,1.3
								c0,0,0,0,0,0c-2.3,0-3.4-1.9-3.4-3c0-1.9,0.3-2.3,0.4-2.6c0.1-0.2,0.3-0.5,0.4-0.8c0.9-2,0-4.4-2-5.3
								c-1.2-0.5-2.5-0.4-3.6,0.2c0.7,1,1,2.2,1,3.5c0,0.2,0,0.5,0,0.8c0,1.3,0.1,3-0.3,4.7c0,0.4,0.1,0.9,0.2,1.4l0.1,0.5
								c0.3,1.9,0.4,3.9-0.1,6.1c0,0,0,0.1,0,0.1c1.9,1.5,4.3,2.5,7.2,2.5c3.9,0,6.6-1.4,8.1-4.1c1.1-2.1,1.2-4.3,1.2-6.9
								c0-1.7,0.3-2.6,0.4-2.8C87.1,31.9,86.9,29.6,85.4,28.2z"/>
						</g>
					</g>
					<g>
						<g>
							<path class="st3" d="M118.4,27.2c-2.2,0.1-3.9,1.9-3.9,4.1v0.5c0,2.2,0,4.6-0.6,6.2c-0.4,1.2-0.7,1.3-1.6,1.3
								c-0.2,0-0.6,0-0.9-0.7c-0.1-0.2-0.3-0.7-0.4-1.4c-0.1-0.8-0.2-1.6-0.2-2.4c0-0.8,0-1.6,0.1-2.5c0-0.2,0.1-0.6,0.2-1
								c2-10.2,2.5-15.2,0.6-19.1c-1.6-3.3-4.7-5.3-8.1-5.3c-2.9,0-5.5,1.5-7,3.4c-1.3,1.7-2,3.7-1.7,5.9c0.3,2.2,2.2,3.7,4.4,3.5
								c2-0.2,3.5-1.9,3.4-3.8c0-0.5,0.4-1,0.9-1.1c0.4,0,0.7,0.3,0.9,0.8c0.3,0.7,0.9,3.6-1.2,14.2c-0.2,0.9-0.2,1.3-0.3,1.6
								c-0.1,1.2-0.2,2.4-0.2,3.5c0,0.5,0,0.9,0,1.3c2.2-1.1,5-0.9,7,0.8c1.3,1.1,2.1,2.6,2.2,4.3c0.1,1.7-0.4,3.3-1.5,4.6
								c-0.3,0.3-0.6,0.6-0.9,0.9c0.8,0.3,1.7,0.4,2.7,0.4c0.8,0,1.5-0.1,2.2-0.2v6c0,2.2,1.7,4,3.9,4.1c2.3,0.1,4.1-1.7,4.1-4V31.7
								c0-0.1,0-0.2,0-0.4v-0.2C122.5,28.9,120.7,27.1,118.4,27.2z"/>
						</g>
					</g>
				</g>
				<g>
					<g>
						<path class="st1" d="M40.1,27.9c0.8,0.3,1.6,0.8,2.3,1.4c0.4,0.3,0.7,0.6,1,1c0.1,0.1,0.2,0.2,0.2,0.3l0.2,0.3
							c0.1,0.2,0.3,0.4,0.4,0.6c0,0,0.1,0.1,0.1,0.1l0.1,0.2c0.1,0.1,0.1,0.2,0.2,0.3c0.1,0.2,0.2,0.4,0.3,0.6
							c0.2,0.4,0.4,0.9,0.5,1.3c0.1,0.4,0.2,0.9,0.3,1.4c0.1,0.5,0.1,0.9,0.2,1.4c0,0.5,0,0.9,0,1.4c0,0.2,0,0.5-0.1,0.7l0,0.2
							l0,0.2c0,0.1,0,0.2-0.1,0.3c-0.1,0.5-0.2,0.9-0.3,1.4c-0.1,0.2-0.1,0.4-0.2,0.7l-0.1,0.3L45,42.2l-0.1,0.3
							c0,0.1-0.1,0.2-0.2,0.3c-0.1,0.1-0.1,0.2-0.2,0.3c-0.1,0.1-0.1,0.2-0.2,0.3c-0.2,0.4-0.5,0.8-0.8,1.1c-0.3,0.4-0.6,0.7-0.9,1
							c-0.3,0.3-0.7,0.6-1.1,0.9l0,0c0.2-0.1,0.3-0.3,0.5-0.4c0.2-0.2,0.3-0.3,0.5-0.5c0.3-0.3,0.6-0.7,0.8-1.1
							c0.5-0.7,0.9-1.5,1.2-2.4c0.3-0.8,0.5-1.7,0.7-2.6c0.1-0.4,0.1-0.9,0.1-1.3c0-0.4,0-0.9,0-1.3c0-0.9-0.2-1.8-0.4-2.6
							c-0.2-0.9-0.6-1.7-1-2.5c-0.4-0.8-1-1.5-1.6-2.1C41.6,28.9,40.9,28.4,40.1,27.9L40.1,27.9z"/>
					</g>
					<g>
						<path class="st1" d="M45.7,25.3c-1-0.8-1.9-1.8-2.5-3c-0.6-1.2-1-2.5-1.1-3.8c0-0.3,0-0.7,0-1c0-0.3,0-0.7,0.1-1
							c0.1-0.7,0.3-1.3,0.5-1.9c0.1-0.2,0.1-0.3,0.2-0.5c0.1-0.1,0.2-0.3,0.2-0.4c0.2-0.3,0.4-0.6,0.6-0.8c0.4-0.5,0.9-1,1.4-1.4
							l0,0c-0.5,0.4-0.8,1-1.2,1.5c-0.3,0.5-0.6,1.1-0.8,1.7c-0.2,0.6-0.4,1.2-0.4,1.9c-0.1,0.6-0.1,1.3,0,1.9
							c0.1,1.3,0.4,2.5,1,3.7c0.3,0.6,0.6,1.1,0.9,1.7C44.9,24.3,45.3,24.8,45.7,25.3L45.7,25.3z"/>
					</g>
					<g>
						<path class="st1" d="M17.4,12.9c-0.3,0.4-0.5,0.8-0.8,1.3c-0.1,0.1-0.1,0.2-0.2,0.3c-0.1,0.1-0.1,0.2-0.1,0.3L16.3,15
							l-0.1,0.2c0,0.1-0.1,0.2-0.1,0.3c-0.2,0.4-0.3,0.9-0.4,1.3c0,0.1,0,0.2-0.1,0.3c0,0.1,0,0.1,0,0.2l0,0.2l0,0.2
							c0,0.1,0,0.1,0,0.2l0,0.3l0,0.2l0,0.2l0,0.3c0,0.2,0,0.5,0,0.7c0,0.1,0,0.2,0,0.4c0,0.1,0,0.2,0,0.4c0,0.1,0,0.2,0,0.4
							c0,0.1,0,0.2,0,0.4c0.1,0.5,0.1,0.9,0.3,1.4c0.1,0.5,0.3,0.9,0.4,1.4l-0.1,0c-0.5-0.8-0.9-1.8-1.1-2.7
							c-0.1-0.2-0.1-0.5-0.1-0.7l0-0.4c0-0.1,0-0.2,0-0.4l0-0.2c0-0.1,0-0.1,0-0.2l0-0.4l0-0.4l0-0.2l0-0.2l0-0.4c0-0.1,0-0.1,0-0.2
							l0-0.2l0-0.2c0-0.1,0-0.1,0-0.2l0.1-0.4c0.1-0.5,0.3-1,0.5-1.4C16.1,14.4,16.6,13.5,17.4,12.9L17.4,12.9z"/>
					</g>
					<g>
						<path class="st1" d="M18.4,14.4c-0.2,0.3-0.4,0.7-0.6,1c0,0.1-0.1,0.2-0.1,0.3c0,0.1-0.1,0.2-0.1,0.3l-0.1,0.1l-0.1,0.1
							c0,0.1-0.1,0.2-0.1,0.3c-0.1,0.4-0.2,0.7-0.3,1.1c0,0.1,0,0.2-0.1,0.3c0,0,0,0.1,0,0.1l0,0.1l0,0.1c0,0,0,0.1,0,0.1l0,0.3
							l0,0.1l0,0.1l0,0.3c0,0.2,0,0.4,0,0.6c0,0.1,0,0.2,0,0.3c0,0.1,0,0.2,0,0.3c0,0.1,0,0.2,0,0.3c0,0.1,0,0.2,0,0.3
							c0.1,0.4,0.1,0.8,0.2,1.1c0.1,0.4,0.2,0.7,0.3,1.1l0,0c-0.4-0.7-0.7-1.4-0.9-2.2c0-0.2-0.1-0.4-0.1-0.6l0-0.3
							c0-0.1,0-0.2,0-0.3l0-0.1c0,0,0-0.1,0-0.1l0-0.3l0-0.3l0-0.1l0-0.1l0-0.3c0,0,0-0.1,0-0.1l0-0.1l0-0.1c0,0,0-0.1,0-0.1
							l0.1-0.3c0.1-0.4,0.2-0.8,0.4-1.1C17.3,15.6,17.8,14.9,18.4,14.4L18.4,14.4z"/>
					</g>
					<g>
						<path class="st1" d="M109.8,16.7c0-0.4-0.1-0.8-0.1-1.2c0-0.1,0-0.2-0.1-0.3c0-0.1,0-0.2-0.1-0.3l0-0.1l0-0.1
							c0-0.1-0.1-0.2-0.1-0.3c-0.1-0.4-0.3-0.7-0.4-1c0-0.1-0.1-0.2-0.1-0.3c0,0,0-0.1-0.1-0.1l-0.1-0.1l-0.1-0.1c0,0,0-0.1-0.1-0.1
							l-0.1-0.2l-0.1-0.1l-0.1-0.1l-0.2-0.2c-0.1-0.1-0.2-0.3-0.3-0.4c-0.1-0.1-0.1-0.1-0.2-0.2c-0.1-0.1-0.1-0.1-0.2-0.2
							c-0.1-0.1-0.1-0.1-0.2-0.2c-0.1-0.1-0.1-0.1-0.2-0.2c-0.3-0.3-0.6-0.5-0.9-0.8c-0.3-0.2-0.6-0.5-1-0.7l0,0
							c0.7,0.3,1.4,0.7,2,1.2c0.2,0.1,0.3,0.3,0.4,0.4L108,11c0.1,0.1,0.1,0.1,0.2,0.2l0.1,0.1c0,0,0.1,0.1,0.1,0.1l0.2,0.2l0.2,0.2
							l0.1,0.1l0.1,0.1l0.2,0.3c0,0,0,0.1,0.1,0.1l0.1,0.1l0.1,0.1c0,0,0,0.1,0.1,0.1l0.1,0.3c0.2,0.4,0.3,0.7,0.4,1.1
							C110,15.1,110,15.9,109.8,16.7L109.8,16.7z"/>
					</g>
					<g>
						<path class="st1" d="M114,39c1.2-2.4,2-4.7,1.6-7.9C116.5,33.8,115.8,37.3,114,39L114,39z"/>
					</g>
					<g>
						<path class="st1" d="M94.3,28.3c-0.6,0.5-1,1.1-1.3,1.7c-0.3,0.6-0.5,1.3-0.7,1.9c-0.2,0.7-0.3,1.4-0.5,2.1
							c-0.1,0.7-0.3,1.4-0.5,2.2h-0.1c0-0.4,0-0.7,0-1.1c0-0.4,0-0.7,0.1-1.1c0.1-0.7,0.2-1.5,0.3-2.2c0.2-0.7,0.5-1.4,0.9-2
							c0.2-0.3,0.5-0.6,0.7-0.8C93.6,28.6,93.9,28.4,94.3,28.3L94.3,28.3z"/>
					</g>
					<g>
						<path class="st1" d="M103.8,7.9c0.1,0,0.3,0,0.4-0.1c0.1,0,0.3,0,0.4,0c0.1,0,0.1,0,0.2,0c0.1,0,0.1,0,0.2,0l0.2,0
							c0.1,0,0.1,0,0.2,0c0.3,0.1,0.5,0.1,0.8,0.2c0.1,0,0.3,0.1,0.4,0.1c0.1,0.1,0.2,0.1,0.4,0.2c1,0.5,1.8,1.1,2.6,1.9
							c0.7,0.8,1.3,1.7,1.7,2.8c0.2,0.5,0.3,1.1,0.4,1.6c0,0.5,0,1.1-0.1,1.6h-0.1c0-0.5-0.1-1-0.2-1.5c-0.1-0.5-0.3-1-0.5-1.5
							c-0.4-0.9-1-1.8-1.7-2.5c-0.7-0.8-1.5-1.4-2.4-1.9c-0.4-0.3-0.9-0.5-1.4-0.7c-0.2-0.1-0.5-0.2-0.7-0.2
							C104.3,8,104,7.9,103.8,7.9L103.8,7.9z"/>
					</g>
					<g>
						<path class="st1" d="M76.6,46.1c0.5-0.1,0.9-0.2,1.4-0.3c0.2-0.1,0.4-0.1,0.6-0.2l0.3-0.1c0.1,0,0.2-0.1,0.3-0.1
							c0.4-0.2,0.8-0.4,1.2-0.6c0.2-0.1,0.4-0.2,0.5-0.4c0.1-0.1,0.2-0.1,0.3-0.2c0.1-0.1,0.2-0.1,0.2-0.2c0.3-0.3,0.6-0.6,0.9-0.9
							c0.3-0.3,0.5-0.7,0.8-1.1c0.1-0.1,0.1-0.2,0.2-0.3c0.1-0.1,0.1-0.2,0.2-0.3c0-0.1,0.1-0.2,0.1-0.3c0-0.1,0.1-0.2,0.1-0.3
							c0.2-0.4,0.3-0.9,0.5-1.3l0.1,0c-0.1,0.9-0.3,1.9-0.7,2.7c-0.2,0.4-0.4,0.8-0.7,1.2c-0.1,0.1-0.1,0.2-0.2,0.3l-0.1,0.1
							c0,0-0.1,0.1-0.1,0.1c0,0-0.1,0.1-0.1,0.1l-0.1,0.1c-0.1,0.1-0.2,0.2-0.3,0.2c-0.4,0.3-0.7,0.6-1.2,0.8
							c-0.4,0.2-0.8,0.4-1.3,0.6C78.5,46,77.6,46.2,76.6,46.1L76.6,46.1z"/>
					</g>
				</g>
			</g>
		</g>
	</g>
</g>
</svg>
